<mxfile host="app.diagrams.net" modified="2020-12-16T13:27:20.464Z" agent="5.0 (Macintosh; Intel Mac OS X 11_0_1) AppleWebKit/537.36 (KHTML, like Gecko) Chrome/87.0.4280.88 Safari/537.36" etag="4VJMT_xlFdkk7cPT0OwM" version="14.0.4" type="github">
  <diagram id="PmYQVgzBJVBOj0Q8I2yv" name="Page-1">
    <mxGraphModel dx="1854" dy="953" grid="1" gridSize="10" guides="1" tooltips="1" connect="1" arrows="1" fold="1" page="1" pageScale="1" pageWidth="827" pageHeight="1169" math="0" shadow="0">
      <root>
        <mxCell id="0" />
        <mxCell id="1" parent="0" />
        <mxCell id="3o0B3BdPzhzLEQEwC1kB-26" value="" style="group" vertex="1" connectable="0" parent="1">
          <mxGeometry x="50" y="330" width="1170" height="150" as="geometry" />
        </mxCell>
        <mxCell id="3o0B3BdPzhzLEQEwC1kB-2" value="Lexical Analysis" style="rounded=1;whiteSpace=wrap;html=1;sketch=1;glass=0;shadow=0;fontFamily=Comic Sans MS;fontSize=18;" vertex="1" parent="3o0B3BdPzhzLEQEwC1kB-26">
          <mxGeometry x="115.84158415841586" width="185.34653465346537" height="150" as="geometry" />
        </mxCell>
        <mxCell id="3o0B3BdPzhzLEQEwC1kB-3" value="Syntax Analysis" style="rounded=1;whiteSpace=wrap;html=1;sketch=1;glass=0;shadow=0;fontFamily=Comic Sans MS;fontSize=18;" vertex="1" parent="3o0B3BdPzhzLEQEwC1kB-26">
          <mxGeometry x="393.8613861386139" width="185.34653465346537" height="150" as="geometry" />
        </mxCell>
        <mxCell id="3o0B3BdPzhzLEQEwC1kB-11" style="edgeStyle=orthogonalEdgeStyle;rounded=1;sketch=1;orthogonalLoop=1;jettySize=auto;html=1;entryX=0;entryY=0.5;entryDx=0;entryDy=0;shadow=1;strokeWidth=3;fontFamily=Comic Sans MS;fontSize=18;" edge="1" parent="3o0B3BdPzhzLEQEwC1kB-26" source="3o0B3BdPzhzLEQEwC1kB-2" target="3o0B3BdPzhzLEQEwC1kB-3">
          <mxGeometry relative="1" as="geometry" />
        </mxCell>
        <mxCell id="3o0B3BdPzhzLEQEwC1kB-13" style="edgeStyle=orthogonalEdgeStyle;rounded=1;sketch=1;orthogonalLoop=1;jettySize=auto;html=1;exitX=1;exitY=0.5;exitDx=0;exitDy=0;entryX=0;entryY=0.5;entryDx=0;entryDy=0;shadow=1;strokeWidth=3;fontFamily=Comic Sans MS;fontSize=18;" edge="1" parent="3o0B3BdPzhzLEQEwC1kB-26" source="3o0B3BdPzhzLEQEwC1kB-4" target="3o0B3BdPzhzLEQEwC1kB-2">
          <mxGeometry relative="1" as="geometry" />
        </mxCell>
        <mxCell id="3o0B3BdPzhzLEQEwC1kB-4" value="Code" style="text;html=1;strokeColor=none;fillColor=none;align=center;verticalAlign=middle;whiteSpace=wrap;rounded=0;shadow=0;glass=0;sketch=1;fontFamily=Comic Sans MS;fontSize=18;" vertex="1" parent="3o0B3BdPzhzLEQEwC1kB-26">
          <mxGeometry y="60" width="57.92079207920793" height="30" as="geometry" />
        </mxCell>
        <mxCell id="3o0B3BdPzhzLEQEwC1kB-14" value="Token" style="text;html=1;strokeColor=none;fillColor=none;align=center;verticalAlign=middle;whiteSpace=wrap;rounded=0;shadow=0;glass=0;sketch=1;fontFamily=Comic Sans MS;fontSize=18;" vertex="1" parent="3o0B3BdPzhzLEQEwC1kB-26">
          <mxGeometry x="312.7722772277228" y="30" width="57.92079207920793" height="30" as="geometry" />
        </mxCell>
        <mxCell id="3o0B3BdPzhzLEQEwC1kB-15" value="..." style="rounded=1;whiteSpace=wrap;html=1;sketch=1;glass=0;shadow=0;fontFamily=Comic Sans MS;fontSize=18;" vertex="1" parent="3o0B3BdPzhzLEQEwC1kB-26">
          <mxGeometry x="671.8811881188119" width="92.67326732673268" height="150" as="geometry" />
        </mxCell>
        <mxCell id="3o0B3BdPzhzLEQEwC1kB-17" style="edgeStyle=orthogonalEdgeStyle;rounded=1;sketch=1;orthogonalLoop=1;jettySize=auto;html=1;exitX=1;exitY=0.5;exitDx=0;exitDy=0;entryX=0;entryY=0.5;entryDx=0;entryDy=0;shadow=0;strokeWidth=3;fontFamily=Comic Sans MS;fontSize=18;" edge="1" parent="3o0B3BdPzhzLEQEwC1kB-26" source="3o0B3BdPzhzLEQEwC1kB-3" target="3o0B3BdPzhzLEQEwC1kB-15">
          <mxGeometry relative="1" as="geometry" />
        </mxCell>
        <mxCell id="3o0B3BdPzhzLEQEwC1kB-19" value="AST" style="text;html=1;strokeColor=none;fillColor=none;align=center;verticalAlign=middle;whiteSpace=wrap;rounded=0;shadow=0;glass=0;sketch=1;fontFamily=Comic Sans MS;fontSize=18;fontColor=#FF3333;" vertex="1" parent="3o0B3BdPzhzLEQEwC1kB-26">
          <mxGeometry x="590.7920792079208" y="30" width="57.92079207920793" height="30" as="geometry" />
        </mxCell>
        <mxCell id="3o0B3BdPzhzLEQEwC1kB-20" value="Code Generation" style="rounded=1;whiteSpace=wrap;html=1;sketch=1;glass=0;shadow=0;fontFamily=Comic Sans MS;fontSize=18;" vertex="1" parent="3o0B3BdPzhzLEQEwC1kB-26">
          <mxGeometry x="845.6435643564357" width="185.34653465346537" height="150" as="geometry" />
        </mxCell>
        <mxCell id="3o0B3BdPzhzLEQEwC1kB-21" style="edgeStyle=orthogonalEdgeStyle;rounded=1;sketch=1;orthogonalLoop=1;jettySize=auto;html=1;exitX=1;exitY=0.5;exitDx=0;exitDy=0;entryX=0;entryY=0.5;entryDx=0;entryDy=0;shadow=0;strokeWidth=3;fontFamily=Comic Sans MS;fontSize=18;fontColor=#FF3333;" edge="1" parent="3o0B3BdPzhzLEQEwC1kB-26" source="3o0B3BdPzhzLEQEwC1kB-15" target="3o0B3BdPzhzLEQEwC1kB-20">
          <mxGeometry relative="1" as="geometry" />
        </mxCell>
        <mxCell id="3o0B3BdPzhzLEQEwC1kB-22" value="0101&lt;br&gt;1010" style="text;html=1;strokeColor=none;fillColor=none;align=center;verticalAlign=middle;whiteSpace=wrap;rounded=0;shadow=0;glass=0;sketch=1;fontFamily=Comic Sans MS;fontSize=18;" vertex="1" parent="3o0B3BdPzhzLEQEwC1kB-26">
          <mxGeometry x="1112.0792079207922" y="60" width="57.92079207920793" height="30" as="geometry" />
        </mxCell>
        <mxCell id="3o0B3BdPzhzLEQEwC1kB-23" style="edgeStyle=orthogonalEdgeStyle;rounded=1;sketch=1;orthogonalLoop=1;jettySize=auto;html=1;exitX=1;exitY=0.5;exitDx=0;exitDy=0;entryX=0;entryY=0.5;entryDx=0;entryDy=0;shadow=0;strokeWidth=3;fontFamily=Comic Sans MS;fontSize=18;fontColor=#FF3333;" edge="1" parent="3o0B3BdPzhzLEQEwC1kB-26" source="3o0B3BdPzhzLEQEwC1kB-20" target="3o0B3BdPzhzLEQEwC1kB-22">
          <mxGeometry relative="1" as="geometry" />
        </mxCell>
      </root>
    </mxGraphModel>
  </diagram>
</mxfile>
